<?xml version="1.0" encoding="UTF-8" standalone="no"?>
<svg
   viewBox="0 0 36 35.999999"
   version="1.1"
   id="svg4"
   sodipodi:docname="baby-chick.svg"
   inkscape:version="1.3.2 (1:1.3.2+202311252150+091e20ef0f)"
   width="36"
   height="36"
   xmlns:inkscape="http://www.inkscape.org/namespaces/inkscape"
   xmlns:sodipodi="http://sodipodi.sourceforge.net/DTD/sodipodi-0.dtd"
   xmlns="http://www.w3.org/2000/svg"
   xmlns:svg="http://www.w3.org/2000/svg">
  <defs
     id="defs4">
    <inkscape:path-effect
       effect="powermask"
       id="path-effect7"
       is_visible="true"
       lpeversion="1"
       uri="#mask-powermask-path-effect7"
       invert="false"
       hide_mask="false"
       background="true"
       background_color="#ffffffff" />
    <mask
       maskUnits="userSpaceOnUse"
       id="mask-powermask-path-effect7">
      <path
         id="mask-powermask-path-effect7_box"
         style="fill:#ffffff;fill-opacity:1"
         d="M 1,3.9021927 H 36.751036 V 36.929728 H 1 Z" />
      <g
         id="g7"
         style="fill:#000000">
        <circle
           fill="#662113"
           cx="12.5"
           cy="13.43"
           r="1.5"
           id="circle7"
           style="fill:#000000" />
        <path
           fill="#ffac33"
           d="m 21.81,15.93 c 0,0 -2,10 10,10 1,0 0,2 -4,2 -4,0 -9.999,-5 -7,-11 0.633,-1.265 1,-1 1,-1 z"
           id="path7"
           style="display:inline;fill:#000000" />
      </g>
    </mask>
    <filter
       id="mask-powermask-path-effect7_inverse"
       inkscape:label="filtermask-powermask-path-effect7"
       style="color-interpolation-filters:sRGB"
       height="100"
       width="100"
       x="-50"
       y="-50">
      <feColorMatrix
         id="mask-powermask-path-effect7_primitive1"
         values="1"
         type="saturate"
         result="fbSourceGraphic" />
      <feColorMatrix
         id="mask-powermask-path-effect7_primitive2"
         values="-1 0 0 0 1 0 -1 0 0 1 0 0 -1 0 1 0 0 0 1 0 "
         in="fbSourceGraphic" />
    </filter>
  </defs>
  <sodipodi:namedview
     id="namedview4"
     pagecolor="#ffffff"
     bordercolor="#000000"
     borderopacity="0.25"
     inkscape:showpageshadow="2"
     inkscape:pageopacity="0.0"
     inkscape:pagecheckerboard="0"
     inkscape:deskcolor="#d1d1d1"
     inkscape:zoom="7.3347697"
     inkscape:cx="21.541235"
     inkscape:cy="27.131049"
     inkscape:window-width="1692"
     inkscape:window-height="1066"
     inkscape:window-x="0"
     inkscape:window-y="28"
     inkscape:window-maximized="1"
     inkscape:current-layer="svg4" />
  <g
     id="g1"
     mask="url(#mask-powermask-path-effect7)"
     inkscape:path-effect="#path-effect7"
     transform="translate(-0.87551823,-2.4159603)">
    <path
       fill="#F4900C"
       d="m 8.512,15.93 c 0,1.657 1.974,2 -0.512,2 -2.485,0 -6,-1 -6,-2 0,-1 1.526,-3 4.012,-3 2.486,0 2.5,1.343 2.5,3 z"
       id="path1"
       style="fill:#7caa96;fill-opacity:1"
       inkscape:original-d="m 8.512,15.93 c 0,1.657 1.974,2 -0.512,2 -2.485,0 -6,-1 -6,-2 0,-1 1.526,-3 4.012,-3 2.486,0 2.5,1.343 2.5,3 z" />
    <path
       fill="#FFAC33"
       d="M 27.88,33.027 C 27.782,32.847 27.63,32.725 27.462,32.636 25.865,30.931 27,28.93 27,28.93 c 0,-0.553 1,-2 0,-2 l -1,1 c -1,1 -1,4 -1,4 h -2 c -0.553,0 -1,0.447 -1,1 0,0.553 0.447,1 1,1 h 1.107 l -0.222,0.12 c -0.486,0.263 -0.667,0.869 -0.404,1.355 0.263,0.486 0.869,0.667 1.356,0.404 l 2.639,-1.427 c 0.486,-0.262 0.667,-0.868 0.404,-1.355 z m -7,0 C 20.782,32.847 20.63,32.725 20.462,32.636 18.865,30.931 20,28.93 20,28.93 c 0,-0.553 1,-2 0,-2 l -1,1 c -1,1 -1,4 -1,4 h -2 c -0.553,0 -1,0.447 -1,1 0,0.553 0.447,1 1,1 h 1.108 l -0.222,0.12 c -0.486,0.263 -0.667,0.869 -0.404,1.355 0.263,0.486 0.869,0.667 1.356,0.404 l 2.639,-1.427 c 0.485,-0.262 0.666,-0.868 0.403,-1.355 z"
       id="path2"
       style="fill:#7caa96;fill-opacity:1"
       inkscape:original-d="M 27.88,33.027 C 27.782,32.847 27.63,32.725 27.462,32.636 25.865,30.931 27,28.93 27,28.93 c 0,-0.553 1,-2 0,-2 l -1,1 c -1,1 -1,4 -1,4 h -2 c -0.553,0 -1,0.447 -1,1 0,0.553 0.447,1 1,1 h 1.107 l -0.222,0.12 c -0.486,0.263 -0.667,0.869 -0.404,1.355 0.263,0.486 0.869,0.667 1.356,0.404 l 2.639,-1.427 c 0.486,-0.262 0.667,-0.868 0.404,-1.355 z m -7,0 C 20.782,32.847 20.63,32.725 20.462,32.636 18.865,30.931 20,28.93 20,28.93 c 0,-0.553 1,-2 0,-2 l -1,1 c -1,1 -1,4 -1,4 h -2 c -0.553,0 -1,0.447 -1,1 0,0.553 0.447,1 1,1 h 1.108 l -0.222,0.12 c -0.486,0.263 -0.667,0.869 -0.404,1.355 0.263,0.486 0.869,0.667 1.356,0.404 l 2.639,-1.427 c 0.485,-0.262 0.666,-0.868 0.403,-1.355 z" />
    <path
       fill="#ffcc4d"
       d="m 35.217,17.305 c -1.342,0 -7.904,4.613 -11.553,-5.375 C 23.659,11.916 23.652,11.906 23.646,11.892 22.69,8.439 19.900723,5.7993683 16.279,5.103 15.753894,5.002035 14.627326,4.6398729 12.102372,5.2392134 8.6667514,6.0547164 5,9.479 5,14.43 c 0,4.478 3.103,8.223 7.273,9.227 1.003,4.171 4.748,7.273 9.227,7.273 3.953,0 6.934,-1.678 8.99,-3.999 0.555,-0.626 0.111,0.602 0.842,0.235 4.24,-2.132 5.168,-9.861 3.885,-9.861 z"
       id="path5"
       sodipodi:nodetypes="sccssscsccs"
       style="opacity:1;fill:#7caa96;fill-opacity:1"
       inkscape:original-d="m 35.217,17.305 c -1.342,0 -7.904,4.613 -11.553,-5.375 C 23.659,11.916 23.652,11.906 23.646,11.892 22.69,8.439 19.900723,5.7993683 16.279,5.103 15.753894,5.002035 14.627326,4.6398729 12.102372,5.2392134 8.6667514,6.0547164 5,9.479 5,14.43 c 0,4.478 3.103,8.223 7.273,9.227 1.003,4.171 4.748,7.273 9.227,7.273 3.953,0 6.934,-1.678 8.99,-3.999 0.555,-0.626 0.111,0.602 0.842,0.235 4.24,-2.132 5.168,-9.861 3.885,-9.861 z" />
  </g>
</svg>
