<?xml version="1.0" encoding="UTF-8" standalone="no"?>
<svg
   width="300"
   height="216"
   viewBox="0 0 300 216"
   version="1.1"
   id="svg1"
   sodipodi:docname="favicon.svg"
   inkscape:version="1.3.2 (1:1.3.2+202311252150+091e20ef0f)"
   xml:space="preserve"
   xmlns:inkscape="http://www.inkscape.org/namespaces/inkscape"
   xmlns:sodipodi="http://sodipodi.sourceforge.net/DTD/sodipodi-0.dtd"
   xmlns="http://www.w3.org/2000/svg"
   xmlns:svg="http://www.w3.org/2000/svg"><defs
     id="defs1"><inkscape:path-effect
       effect="powermask"
       id="path-effect13"
       is_visible="true"
       lpeversion="1"
       uri="#mask-powermask-path-effect13"
       invert="false"
       hide_mask="false"
       background="true"
       background_color="#ffffffff" /><inkscape:path-effect
       effect="powermask"
       id="path-effect6"
       is_visible="true"
       lpeversion="1"
       uri="#mask-powermask-path-effect6"
       invert="false"
       hide_mask="false"
       background="true"
       background_color="#ffffffff" /><inkscape:path-effect
       effect="powermask"
       id="path-effect11"
       is_visible="true"
       lpeversion="1"
       uri="#mask-powermask-path-effect11"
       invert="false"
       hide_mask="false"
       background="true"
       background_color="#ffffffff" /><inkscape:path-effect
       effect="powermask"
       id="path-effect4"
       is_visible="true"
       lpeversion="1"
       uri="#mask-powermask-path-effect4"
       invert="false"
       hide_mask="false"
       background="true"
       background_color="#ffffffff" /><inkscape:path-effect
       effect="powermask"
       id="path-effect5"
       is_visible="true"
       lpeversion="1"
       uri="#mask-powermask-path-effect5"
       invert="false"
       hide_mask="false"
       background="true"
       background_color="#ffffffff" /><filter
       id="mask-powermask-path-effect10_inverse"
       inkscape:label="filtermask-powermask-path-effect10"
       style="color-interpolation-filters:sRGB"
       height="100"
       width="100"
       x="-50"
       y="-50"><feColorMatrix
         id="mask-powermask-path-effect10_primitive1"
         values="1"
         type="saturate"
         result="fbSourceGraphic" /><feColorMatrix
         id="mask-powermask-path-effect10_primitive2"
         values="-1 0 0 0 1 0 -1 0 0 1 0 0 -1 0 1 0 0 0 1 0 "
         in="fbSourceGraphic" /></filter><mask
       maskUnits="userSpaceOnUse"
       id="mask-powermask-path-effect4"><g
         id="g4"
         style="fill:#000000"
         transform="matrix(0.97233247,0,0,0.97233247,0.98914274,0.99408676)"><circle
           fill="#662113"
           cx="12.5"
           cy="13.43"
           r="1.5"
           id="circle1"
           style="fill:#000000" /><path
           fill="#ffac33"
           d="m 21.81,15.93 c 0,0 -2,10 10,10 1,0 0,2 -4,2 -4,0 -9.999,-5 -7,-11 0.633,-1.265 1,-1 1,-1 z"
           id="path4"
           style="fill:#000000" /></g></mask><mask
       maskUnits="userSpaceOnUse"
       id="mask-powermask-path-effect6"><path
         id="mask-powermask-path-effect6_box"
         style="fill:#ffffff;fill-opacity:1"
         d="M 1,3.9021927 H 36.751036 V 36.929728 H 1 Z" /><g
         id="g6"
         style="fill:#000000"><circle
           fill="#662113"
           cx="12.5"
           cy="13.43"
           r="1.5"
           id="circle4"
           style="fill:#000000" /><path
           fill="#ffac33"
           d="m 21.81,15.93 c 0,0 -2,10 10,10 1,0 0,2 -4,2 -4,0 -9.999,-5 -7,-11 0.633,-1.265 1,-1 1,-1 z"
           id="path6"
           style="display:inline;fill:#000000" /></g></mask><filter
       id="mask-powermask-path-effect6_inverse"
       inkscape:label="filtermask-powermask-path-effect6"
       style="color-interpolation-filters:sRGB"
       height="100"
       width="100"
       x="-50"
       y="-50"><feColorMatrix
         id="mask-powermask-path-effect6_primitive1"
         values="1"
         type="saturate"
         result="fbSourceGraphic" /><feColorMatrix
         id="mask-powermask-path-effect6_primitive2"
         values="-1 0 0 0 1 0 -1 0 0 1 0 0 -1 0 1 0 0 0 1 0 "
         in="fbSourceGraphic" /></filter></defs><sodipodi:namedview
     id="namedview1"
     pagecolor="#ffffff"
     bordercolor="#000000"
     borderopacity="0.25"
     inkscape:showpageshadow="2"
     inkscape:pageopacity="0.0"
     inkscape:pagecheckerboard="0"
     inkscape:deskcolor="#d1d1d1"
     inkscape:zoom="1.1214754"
     inkscape:cx="171.20303"
     inkscape:cy="313.87223"
     inkscape:window-width="1692"
     inkscape:window-height="1066"
     inkscape:window-x="0"
     inkscape:window-y="28"
     inkscape:window-maximized="1"
     inkscape:current-layer="g13"
     inkscape:export-bgcolor="#ffffff00" /><path
     fill="#FFCF01"
     d="m 300.14,2.894 v 211.37 c 0,0 -43.756,-29.502 -108.587,-29.502 -52.15,0 -162.052,8.805 -191.553,-134.63 0,0 19.83,17.455 60.805,17.455 66.175,0 87.65,-64.693 239.334,-64.693 z"
     id="path1"
     style="display:inline;fill:#7caa96;fill-opacity:1"
     mask="none" /><g
     id="g13"
     transform="matrix(5.4330599,0,0,5.4330599,105.76247,-7.5624684)"
     style="display:none"><g
       id="g12"
       style="fill:#000000"
       mask="url(#mask-powermask-path-effect6)"
       inkscape:path-effect="#path-effect6"><path
         fill="#f4900c"
         d="m 8.512,15.93 c 0,1.657 1.974,2 -0.512,2 -2.485,0 -6,-1 -6,-2 0,-1 1.526,-3 4.012,-3 2.486,0 2.5,1.343 2.5,3 z"
         id="path10"
         style="fill:#000000"
         inkscape:original-d="m 8.512,15.93 c 0,1.657 1.974,2 -0.512,2 -2.485,0 -6,-1 -6,-2 0,-1 1.526,-3 4.012,-3 2.486,0 2.5,1.343 2.5,3 z" /><path
         fill="#ffac33"
         d="M 27.88,33.027 C 27.782,32.847 27.63,32.725 27.462,32.636 25.865,30.931 27,28.93 27,28.93 c 0,-0.553 1,-2 0,-2 l -1,1 c -1,1 -1,4 -1,4 h -2 c -0.553,0 -1,0.447 -1,1 0,0.553 0.447,1 1,1 h 1.107 l -0.222,0.12 c -0.486,0.263 -0.667,0.869 -0.404,1.355 0.263,0.486 0.869,0.667 1.356,0.404 l 2.639,-1.427 c 0.486,-0.262 0.667,-0.868 0.404,-1.355 z m -7,0 C 20.782,32.847 20.63,32.725 20.462,32.636 18.865,30.931 20,28.93 20,28.93 c 0,-0.553 1,-2 0,-2 l -1,1 c -1,1 -1,4 -1,4 h -2 c -0.553,0 -1,0.447 -1,1 0,0.553 0.447,1 1,1 h 1.108 l -0.222,0.12 c -0.486,0.263 -0.667,0.869 -0.404,1.355 0.263,0.486 0.869,0.667 1.356,0.404 l 2.639,-1.427 c 0.485,-0.262 0.666,-0.868 0.403,-1.355 z"
         id="path11"
         style="fill:#000000"
         inkscape:original-d="M 27.88,33.027 C 27.782,32.847 27.63,32.725 27.462,32.636 25.865,30.931 27,28.93 27,28.93 c 0,-0.553 1,-2 0,-2 l -1,1 c -1,1 -1,4 -1,4 h -2 c -0.553,0 -1,0.447 -1,1 0,0.553 0.447,1 1,1 h 1.107 l -0.222,0.12 c -0.486,0.263 -0.667,0.869 -0.404,1.355 0.263,0.486 0.869,0.667 1.356,0.404 l 2.639,-1.427 c 0.486,-0.262 0.667,-0.868 0.404,-1.355 z m -7,0 C 20.782,32.847 20.63,32.725 20.462,32.636 18.865,30.931 20,28.93 20,28.93 c 0,-0.553 1,-2 0,-2 l -1,1 c -1,1 -1,4 -1,4 h -2 c -0.553,0 -1,0.447 -1,1 0,0.553 0.447,1 1,1 h 1.108 l -0.222,0.12 c -0.486,0.263 -0.667,0.869 -0.404,1.355 0.263,0.486 0.869,0.667 1.356,0.404 l 2.639,-1.427 c 0.485,-0.262 0.666,-0.868 0.403,-1.355 z" /><path
         fill="#ffcc4d"
         d="m 35.217,17.305 c -1.342,0 -7.904,4.613 -11.553,-5.375 C 23.659,11.916 23.652,11.906 23.646,11.892 22.69,8.439 19.900723,5.7993683 16.279,5.103 15.753894,5.002035 14.627326,4.6398729 12.102372,5.2392134 8.6667514,6.0547164 5,9.479 5,14.43 c 0,4.478 3.103,8.223 7.273,9.227 1.003,4.171 4.748,7.273 9.227,7.273 3.953,0 6.934,-1.678 8.99,-3.999 0.555,-0.626 0.111,0.602 0.842,0.235 4.24,-2.132 5.168,-9.861 3.885,-9.861 z"
         id="path12"
         sodipodi:nodetypes="sccssscsccs"
         style="opacity:1;fill:#000000"
         inkscape:original-d="m 35.217,17.305 c -1.342,0 -7.904,4.613 -11.553,-5.375 C 23.659,11.916 23.652,11.906 23.646,11.892 22.69,8.439 19.900723,5.7993683 16.279,5.103 15.753894,5.002035 14.627326,4.6398729 12.102372,5.2392134 8.6667514,6.0547164 5,9.479 5,14.43 c 0,4.478 3.103,8.223 7.273,9.227 1.003,4.171 4.748,7.273 9.227,7.273 3.953,0 6.934,-1.678 8.99,-3.999 0.555,-0.626 0.111,0.602 0.842,0.235 4.24,-2.132 5.168,-9.861 3.885,-9.861 z" /></g></g></svg>
