<?xml version="1.0" encoding="UTF-8" standalone="no"?>
<svg
   version="1.1"
   id="Layer_1"
   x="0"
   y="0"
   viewBox="0 0 363.2 72"
   xml:space="preserve"
   sodipodi:docname="ar-logo.svg"
   inkscape:version="1.3.2 (1:1.3.2+202311252150+091e20ef0f)"
   xmlns:inkscape="http://www.inkscape.org/namespaces/inkscape"
   xmlns:sodipodi="http://sodipodi.sourceforge.net/DTD/sodipodi-0.dtd"
   xmlns="http://www.w3.org/2000/svg"
   xmlns:svg="http://www.w3.org/2000/svg"><defs
     id="defs3" /><sodipodi:namedview
     id="namedview3"
     pagecolor="#ffffff"
     bordercolor="#000000"
     borderopacity="0.25"
     inkscape:showpageshadow="2"
     inkscape:pageopacity="0.0"
     inkscape:pagecheckerboard="0"
     inkscape:deskcolor="#d1d1d1"
     inkscape:zoom="3.7868292"
     inkscape:cx="199.37525"
     inkscape:cy="62.057196"
     inkscape:window-width="1692"
     inkscape:window-height="1066"
     inkscape:window-x="0"
     inkscape:window-y="28"
     inkscape:window-maximized="1"
     inkscape:current-layer="Layer_1" /><style
     id="style1">.st1{fill:#59595b}</style><path
     d="M102.2 0v72s-14.9-10-37-10C47.4 62 10 65 0 16.1c0 0 6.8 5.9 20.7 5.9 22.5 0 29.9-22 81.5-22z"
     fill="#ffce00"
     id="path1"
     style="fill:#7caa96;fill-opacity:1" /><path
     class="st1"
     d="M112.7 47.6h12.8c7.1 0 10.6 2.4 10.6 7.1 0 3.2-1.8 5.4-5.4 6.4l6.9 10.3h-4.4l-6.3-9.6h-10.4v9.6h-3.7V47.6h-.1zm12.4 11.3c4.7 0 7-1.4 7-4.2 0-1.5-.5-2.5-1.6-3.2s-2.8-1-5.3-1h-8.8v8.4h8.7zM141.9 47.6h21.8v2.9h-18v7.2h17.1v2.9h-17.1v7.9h18.8l-.7 2.9h-21.9V47.6zM169.6 47.6h20.7v2.9h-16.9V58h16.1v2.9h-16.1v10.5h-3.8V47.6zM195 47.6h21.8v2.9h-18v7.2h17.1v2.9h-17.1v7.9h18.8l-.7 2.9H195V47.6zM222.3 47.6h12.8c7.1 0 10.6 2.4 10.6 7.1 0 3.2-1.8 5.4-5.4 6.4l6.9 10.3h-4.4l-6.3-9.6h-10.4v9.6h-3.7l-.1-23.8zm12.4 11.3c4.7 0 7-1.4 7-4.2 0-1.5-.5-2.5-1.6-3.2s-2.8-1-5.3-1H226v8.4h8.7zM251.1 47.6h21.8v2.9h-18v7.2H272v2.9h-17.1v7.9h18.8l-.7 2.9h-21.9V47.6zM278.5 47.6h3.7l18.2 19.1V47.6h3.7v23.8h-3.7l-18.2-19.1v19.1h-3.7V47.6zM336 54.8l-3.7.5c-.8-1.9-1.9-3.3-3.4-4.1-1.5-.8-3.5-1.3-6.2-1.3-2.2 0-4.1.4-5.7 1.2-1.6.8-2.8 1.9-3.7 3.3-.9 1.4-1.3 3.1-1.3 5.1s.4 3.7 1.3 5.1c.9 1.4 2.1 2.5 3.7 3.3 1.6.8 3.5 1.1 5.8 1.1 2.8 0 5-.4 6.6-1.3 1.6-.9 2.6-2.3 3.1-4.2h3.9c-.5 2.7-2 4.8-4.3 6.3-2.3 1.4-5.4 2.2-9.3 2.2-3 0-5.6-.5-7.8-1.5s-3.9-2.5-5.1-4.3c-1.2-1.9-1.8-4.1-1.8-6.6s.6-4.7 1.8-6.6c1.2-1.9 2.9-3.3 5.1-4.4 2.2-1 4.8-1.6 7.7-1.6 7.2 0 11.6 2.6 13.3 7.8zM340.6 47.6h21.8v2.9h-18v7.2h17.1v2.9h-17.1v7.9h18.8l-.7 2.9h-21.9V47.6z"
     id="path2" /><path
     style="font-weight:bold;font-size:60.3938px;font-family:'Roboto Mono';-inkscape-font-specification:'Roboto Mono Bold';fill:#59595b;stroke-width:0.603938"
     d="m 130.77708,33.971518 2.50658,8.964704 h 8.72879 L 128.21152,5.7220459e-6 h -7.51974 L 106.62546,42.936222 h 8.72879 l 2.53606,-8.964704 z m -10.85201,-7.04791 4.51184,-15.806189 4.39388,15.806189 z m 54.28954,16.012614 V 5.7220459e-6 h -8.31594 L 165.86918,27.57237 154.01453,5.7220459e-6 H 145.6691 V 42.936222 h 8.34543 V 15.245901 l 11.94311,27.690321 z M 183.97552,5.7220459e-6 V 6.6940449 h 8.1685 V 36.271672 h -8.1685 v 6.66455 h 24.82987 v -6.66455 h -8.37492 V 6.6940449 h 8.37492 V 5.7220459e-6 Z m 44.58761,0 H 218.27141 V 42.936222 h 7.60821 V 30.226394 l -0.35387,-19.28591 5.04264,17.840941 h 4.099 l 5.63243,-18.637148 -0.35387,20.082117 v 12.709828 h 7.6082 V 5.7220459e-6 H 237.26243 L 232.63263,16.130576 Z M 275.74578,33.971518 l 2.50658,8.964704 h 8.72879 L 273.18022,5.7220459e-6 h -7.51973 L 251.59416,42.936222 h 8.72879 l 2.53607,-8.964704 z m -10.85201,-7.04791 4.51184,-15.806189 4.39389,15.806189 z m 34.85618,9.318575 V 5.7220459e-6 h -8.31594 V 42.936222 h 28.42755 v -6.694039 z"
     id="text4"
     transform="scale(1.022291,0.97819508)"
     aria-label="ANIMAL" /></svg>
