<?xml version="1.0" standalone="no"?>
<!DOCTYPE svg PUBLIC "-//W3C//DTD SVG 20010904//EN"
 "http://www.w3.org/TR/2001/REC-SVG-20010904/DTD/svg10.dtd">
<svg version="1.0" xmlns="http://www.w3.org/2000/svg"
 width="1200.000000pt" height="1200.000000pt" viewBox="0 0 1200.000000 1200.000000"
 preserveAspectRatio="xMidYMid meet">
<metadata>
Created by potrace 1.14, written by Peter Selinger 2001-2017
</metadata>
<g transform="translate(0.000000,1200.000000) scale(0.100000,-0.100000)"
fill="#000000" stroke="none">
<path d="M11505 10202 c-3 -3 -49 -7 -103 -8 -85 -1 -261 -9 -472 -19 -81 -4
-239 -14 -305 -20 -27 -3 -86 -7 -130 -11 -75 -5 -121 -9 -240 -19 -27 -3 -63
-6 -80 -8 -16 -3 -59 -8 -95 -11 -63 -7 -103 -11 -185 -21 -22 -3 -58 -7 -80
-9 -61 -8 -118 -16 -140 -20 -11 -2 -47 -7 -80 -10 -33 -4 -69 -10 -79 -13
-11 -3 -33 -7 -50 -8 -35 -3 -100 -13 -133 -19 -23 -5 -106 -18 -138 -22 -11
-1 -20 -3 -20 -4 0 -2 -9 -4 -20 -5 -22 -3 -45 -7 -190 -35 -27 -6 -61 -12
-75 -14 -14 -3 -25 -5 -25 -6 0 -1 -11 -3 -25 -5 -14 -2 -69 -13 -124 -25 -54
-12 -106 -23 -115 -25 -9 -2 -56 -13 -106 -25 -49 -12 -99 -23 -110 -26 -11
-2 -29 -6 -40 -8 -11 -2 -53 -14 -94 -25 -41 -11 -77 -19 -79 -16 -3 3 -10 1
-16 -4 -6 -5 -36 -14 -66 -21 -30 -7 -59 -15 -65 -19 -12 -6 -31 -11 -62 -14
-13 -1 -23 -5 -23 -8 0 -6 -27 -13 -75 -21 -5 0 -25 -7 -42 -15 -18 -7 -33
-10 -33 -6 0 4 -5 2 -12 -5 -7 -7 -22 -12 -35 -12 -13 0 -23 -4 -23 -10 0 -5
-3 -9 -7 -8 -13 2 -169 -41 -218 -62 -11 -4 -56 -20 -100 -35 -86 -28 -199
-68 -255 -90 -19 -7 -96 -37 -170 -65 -74 -29 -139 -55 -145 -58 -5 -4 -14 -7
-20 -8 -11 -2 -347 -147 -445 -192 -184 -84 -247 -115 -505 -244 -154 -77
-283 -145 -287 -152 -4 -6 -8 -7 -8 -3 0 4 -24 -5 -52 -21 -94 -52 -143 -76
-150 -74 -5 1 -8 -1 -8 -6 0 -4 -15 -13 -32 -21 -18 -8 -35 -17 -38 -20 -3 -3
-27 -17 -55 -31 -27 -13 -67 -35 -87 -47 -21 -13 -38 -20 -38 -17 0 4 -6 2
-12 -4 -15 -12 -88 -51 -219 -118 -52 -27 -95 -52 -97 -56 -2 -5 -10 -8 -17
-8 -14 0 -98 -43 -122 -63 -7 -5 -13 -6 -13 -3 0 4 -13 -2 -29 -13 -16 -12
-32 -21 -36 -21 -4 0 -62 -27 -128 -59 -170 -82 -268 -127 -297 -136 -14 -4
-29 -11 -35 -15 -5 -4 -68 -30 -140 -57 -154 -60 -168 -66 -177 -68 -5 -2 -10
-4 -13 -5 -3 -1 -8 -3 -12 -4 -43 -11 -101 -31 -111 -39 -7 -5 -15 -7 -19 -3
-3 3 -17 -1 -30 -9 -13 -9 -23 -13 -23 -10 0 2 -12 0 -28 -6 -15 -6 -35 -12
-45 -14 -10 -2 -50 -13 -90 -24 -40 -10 -85 -22 -102 -25 -228 -45 -287 -56
-325 -61 -25 -3 -63 -8 -85 -11 -239 -34 -689 -34 -1015 0 -114 12 -144 16
-170 21 -14 2 -43 7 -65 10 -84 12 -246 41 -273 49 -9 3 -30 8 -47 11 -68 12
-89 16 -97 21 -5 3 -21 7 -36 10 -15 2 -38 9 -52 13 -25 9 -76 23 -95 26 -5 0
-17 4 -25 7 -8 3 -64 23 -125 43 -128 43 -220 78 -273 101 -46 21 -310 151
-337 167 -76 44 -186 115 -220 142 -60 47 -68 51 -61 27 4 -11 9 -33 11 -48 5
-34 13 -69 15 -69 2 0 4 -12 13 -60 4 -16 11 -48 16 -70 5 -22 12 -51 15 -65
3 -14 19 -79 36 -145 17 -66 33 -131 36 -144 3 -14 7 -28 10 -33 3 -4 7 -16 9
-26 9 -46 54 -204 72 -252 3 -8 8 -24 10 -34 4 -23 126 -389 144 -431 6 -16
22 -57 34 -90 60 -163 71 -190 78 -193 4 -2 7 -10 7 -18 0 -8 4 -22 9 -32 5
-9 13 -28 19 -42 112 -268 301 -645 414 -825 10 -16 21 -38 24 -47 4 -10 10
-18 15 -18 5 0 8 -3 7 -7 -1 -5 23 -48 55 -96 31 -48 57 -92 57 -97 0 -6 4
-10 8 -10 5 0 15 -12 23 -27 8 -16 17 -30 20 -33 3 -3 27 -36 54 -75 26 -38
63 -89 81 -112 19 -23 34 -46 34 -51 0 -6 3 -12 8 -14 9 -4 79 -91 79 -98 0
-3 13 -18 29 -35 16 -16 45 -50 64 -74 123 -154 417 -453 585 -594 100 -84
125 -105 155 -127 18 -14 38 -29 44 -35 23 -21 93 -72 141 -105 28 -19 52 -37
55 -40 14 -18 451 -290 466 -290 3 0 19 -9 35 -21 16 -11 29 -17 29 -13 0 3 6
1 13 -5 22 -18 225 -120 230 -115 2 3 10 -2 17 -11 7 -8 18 -15 25 -15 7 0 33
-10 57 -21 23 -12 52 -26 63 -30 11 -5 46 -20 78 -33 31 -14 58 -25 60 -24 1
0 19 -7 40 -15 20 -9 90 -35 155 -58 64 -22 126 -45 137 -50 11 -4 43 -15 70
-23 28 -8 95 -28 150 -44 55 -16 114 -33 130 -37 17 -5 35 -10 40 -11 14 -5
138 -36 150 -38 6 -1 16 -5 22 -9 7 -5 13 -6 13 -3 0 2 28 -2 63 -11 34 -8 71
-16 82 -19 45 -9 73 -15 145 -29 41 -8 84 -16 95 -19 20 -4 121 -19 140 -21 6
-1 30 -5 55 -10 25 -4 56 -9 70 -11 35 -4 98 -13 140 -19 19 -3 58 -8 85 -10
28 -2 61 -6 75 -9 14 -2 59 -7 100 -11 41 -4 91 -8 110 -11 19 -2 64 -6 100
-9 36 -2 65 -4 65 -5 0 0 41 -3 90 -6 50 -2 126 -6 170 -9 215 -13 516 -18
1245 -20 437 -2 820 -5 850 -9 30 -3 93 -8 140 -10 123 -8 285 -22 285 -26 0
-1 18 -3 40 -5 22 -2 85 -9 140 -16 55 -7 109 -13 120 -14 11 -1 20 -4 20 -5
0 -1 18 -4 40 -5 22 -2 40 -4 40 -5 0 -3 103 -20 155 -26 14 -1 26 -3 28 -4 3
-3 11 -5 63 -13 47 -8 96 -17 114 -21 23 -6 91 -20 105 -21 8 -1 22 -5 30 -8
8 -3 29 -8 45 -11 43 -7 80 -15 149 -32 34 -8 72 -17 84 -20 34 -7 124 -31
142 -38 8 -3 26 -8 40 -10 24 -5 195 -52 215 -60 6 -2 12 -4 15 -4 3 -1 30
-10 60 -20 30 -11 60 -20 65 -21 6 0 33 -8 60 -17 61 -19 67 -21 80 -24 6 -1
16 -6 23 -12 6 -6 12 -7 12 -3 0 4 7 2 15 -5 8 -7 15 -10 15 -6 0 4 13 0 29
-9 17 -8 38 -17 48 -18 10 -2 27 -7 38 -12 11 -4 81 -30 155 -58 74 -28 137
-54 140 -57 3 -3 12 -6 20 -8 8 -1 24 -6 35 -11 11 -5 49 -21 85 -36 36 -15
98 -43 138 -61 41 -19 76 -34 78 -34 2 0 60 -27 128 -60 69 -33 129 -60 134
-60 6 0 12 -3 14 -7 2 -5 39 -27 83 -50 44 -23 100 -53 125 -67 25 -14 56 -31
70 -39 58 -32 101 -57 139 -81 22 -15 43 -26 46 -26 3 0 4 1900 3 4222 l-3
4223 -203 -2 c-112 0 -206 -3 -208 -6 -3 -3 -20 -1 -39 3 -19 4 -37 5 -40 2z"/>
</g>
</svg>
